HIERARCHY
ROOT hip
{
	OFFSET 0.000000 0.000000 0.000000 
	CHANNELS 6 Xposition Yposition Zposition Xrotation Zrotation Yrotation
	JOINT abdomen
	{
		OFFSET 0.000000 3.402643 0.000000 
		CHANNELS 3 Xrotation Zrotation Yrotation
		JOINT chest
		{
			OFFSET 0.000000 8.438565 -0.680529 
			CHANNELS 3 Xrotation Zrotation Yrotation
			JOINT neck
			{
				OFFSET 0.000000 10.207942 -0.272212 
				CHANNELS 3 Xrotation Zrotation Yrotation
				JOINT head
				{
					OFFSET 0.000000 3.130431 0.000000 
					CHANNELS 3 Xrotation Zrotation Yrotation
					End Site
					{
						OFFSET 0.000000 3.130435 0.000000 
					}
				}
			}
			JOINT lCollar
			{
				OFFSET 3.470700 6.669187 -0.816635 
				CHANNELS 3 Yrotation Zrotation Xrotation
				JOINT lShldr
				{
					OFFSET 3.198488 0.000000 0.000000 
					CHANNELS 3 Zrotation Yrotation Xrotation
					JOINT lForeArm
					{
						OFFSET 10.139888 0.000000 0.000000 
						CHANNELS 3 Yrotation Zrotation Xrotation
						JOINT lHand
						{
							OFFSET 8.370511 0.000000 0.000000 
							CHANNELS 3 Zrotation Yrotation Xrotation
							End Site
							{
								OFFSET 4.083176 0.000000 0.000000 
							}
						}
					}
				}
			}
			JOINT rCollar
			{
				OFFSET -3.470700 6.669187 -0.816635 
				CHANNELS 3 Yrotation Zrotation Xrotation
				JOINT rShldr
				{
					OFFSET -3.198488 0.000000 0.000000 
					CHANNELS 3 Zrotation Yrotation Xrotation
					JOINT rForeArm
					{
						OFFSET -10.139888 0.000000 0.000000 
						CHANNELS 3 Yrotation Zrotation Xrotation
						JOINT rHand
						{
							OFFSET -8.370511 0.000000 0.000000 
							CHANNELS 3 Zrotation Yrotation Xrotation
							End Site
							{
								OFFSET -4.083176 0.000000 0.000000 
							}
						}
					}
				}
			}
		}
	}
	JOINT lThigh
	{
		OFFSET 5.308129 -1.633274 1.361059 
		CHANNELS 3 Xrotation Zrotation Yrotation
		JOINT lShin
		{
			OFFSET -2.041588 -20.007561 0.000000 
			CHANNELS 3 Xrotation Zrotation Yrotation
			JOINT lFoot
			{
				OFFSET 0.000000 -19.190928 -1.224953 
				CHANNELS 3 Xrotation Yrotation Zrotation
				End Site
				{
					OFFSET 0.000000 -2.449906 4.627600 
				}
			}
		}
	}
	JOINT rThigh
	{
		OFFSET -5.308129 -1.633274 1.361059 
		CHANNELS 3 Xrotation Zrotation Yrotation
		JOINT rShin
		{
			OFFSET 2.041588 -20.007561 0.000000 
			CHANNELS 3 Xrotation Zrotation Yrotation
			JOINT rFoot
			{
				OFFSET 0.000000 -19.190928 -1.224953 
				CHANNELS 3 Xrotation Yrotation Zrotation
				End Site
				{
					OFFSET 0.000000 -2.449906 4.627600 
				}
			}
		}
	}
}
MOTION
Frames: 18
Frame Time: 0.011111
79.089302 54.747944 64.166168 4.077622 11.745120 -122.304977 32.940495 1.109972 -4.176805 -23.483833 6.359011 -1.250672 0.910676 -12.005646 -17.590509 12.861463 36.039146 -34.404846 2.971642 -4.490881 1.927035 -66.665703 -37.618431 29.303728 -44.087627 6.100904 5.858139 8.524705 12.647240 -49.231823 -4.704987 0.510038 2.448925 75.175957 33.886051 33.787518 63.066921 -9.441737 13.794281 -8.534408 -12.637552 61.702988 -16.498602 16.281971 9.449829 31.561434 -5.240366 -5.057115 -31.728861 12.220745 4.992228 -17.482738 1.346835 -4.664159 32.267998 5.217603 5.104846 -23.812654 -7.997816 -0.788118 
79.168816 54.719654 64.214569 4.349404 11.698592 -122.853699 33.151588 1.471817 -3.875623 -23.502815 6.096311 -1.224047 0.878450 -11.788592 -17.656183 12.862917 35.785664 -34.568623 2.971642 -4.490881 1.927035 -66.326569 -37.958160 28.668825 -43.821960 6.024491 5.763423 8.524705 12.647240 -49.388073 -4.704987 0.510038 2.448925 75.258316 33.774025 33.219498 62.459927 -9.424342 13.522348 -8.534408 -12.637552 61.781109 -16.362366 16.614456 9.640566 31.681757 -5.225709 -5.084009 -32.086594 12.216472 5.123069 -16.780079 1.474106 -5.907540 32.796539 5.178604 5.180018 -23.742664 -8.741924 -1.034282 
79.236069 54.746994 64.243164 3.932413 11.568236 -123.384621 32.908726 1.148821 -4.033975 -23.453630 6.058390 -1.216072 0.988617 -11.449643 -17.756556 12.785287 35.505032 -34.811573 2.971642 -4.490881 1.927035 -66.056831 -38.276752 27.856394 -43.463486 5.909642 5.629494 8.524705 12.647240 -49.925182 -4.704987 0.510038 2.448925 75.374931 33.581882 32.194210 61.788452 -9.395501 13.220283 -8.534408 -12.637552 61.683453 -16.235777 16.253647 9.864501 31.531059 -5.244881 -5.055668 -32.192944 12.480412 5.303570 -16.511013 0.878621 -6.974467 33.344795 5.134208 5.264842 -23.852968 -9.247044 -1.233478 
79.292320 54.794140 64.255737 3.160691 11.557832 -124.127907 32.199551 0.571843 -4.287923 -23.237728 6.103205 -1.176545 1.053856 -11.389570 -17.798819 12.968582 35.627827 -34.897305 2.971642 -4.490881 1.927035 -65.930672 -38.680077 26.618284 -42.952534 5.747959 5.447698 8.524705 12.647240 -50.921276 -4.704987 0.510038 2.448925 75.383835 33.434620 31.427935 61.116901 -9.358409 12.919016 -8.534408 -12.637552 61.419781 -16.362328 15.716169 10.297081 31.521378 -5.245513 -5.045380 -32.367092 12.701292 5.463092 -16.556036 0.068473 -7.720480 33.842770 5.102684 5.309892 -24.313303 -8.943655 -1.239579 
79.352661 54.774021 64.263908 3.091568 11.368545 -124.696129 32.165157 0.557379 -4.211983 -23.149046 5.910768 -1.144533 1.279320 -11.298268 -17.910181 12.960023 35.965050 -35.174110 2.971642 -4.490881 1.927035 -65.653915 -39.086674 25.448019 -42.564335 5.616980 5.301064 8.524705 12.647240 -51.731823 -4.704987 0.510038 2.448925 75.430031 33.246227 30.975882 60.349865 -9.305714 12.563463 -8.534408 -12.637552 60.843613 -16.049719 15.686457 10.811557 31.471518 -5.245575 -5.050745 -32.419197 12.758231 5.513736 -15.929127 -0.252699 -8.557531 34.311131 5.058141 5.387153 -24.766367 -8.605545 -1.232086 
79.448196 54.728142 64.281189 3.239683 11.123046 -125.052078 32.436974 0.717533 -4.275876 -23.256819 5.818264 -1.188586 1.467162 -11.101773 -17.978178 12.813643 35.980679 -35.373871 2.971642 -4.490881 1.927035 -65.424461 -39.414043 23.797068 -42.238625 5.511818 5.178013 8.524705 12.647240 -52.737679 -4.704987 0.510038 2.448925 75.504219 33.026981 30.383093 59.519054 -9.238256 12.197538 -8.534408 -12.637552 60.277206 -15.789213 15.837243 11.124484 31.481096 -5.245578 -5.061315 -32.198124 13.089531 5.567013 -15.196952 -0.399171 -9.267858 34.739086 5.028520 5.426218 -25.207268 -8.651496 -1.370840 
79.544365 54.719025 64.298790 3.000657 11.011066 -125.777374 32.303886 0.467937 -4.288066 -23.237244 5.830397 -1.158038 1.368378 -10.944067 -18.030052 13.044888 35.882721 -35.503960 2.971642 -4.490881 1.927035 -65.254906 -39.730320 22.313881 -42.014568 5.437069 5.097791 8.524705 12.647240 -53.479870 -4.704987 0.510038 2.448925 75.644279 33.009686 29.471085 58.677608 -9.154826 11.816365 -8.534408 -12.637552 59.993999 -15.766047 15.714799 11.280457 31.599741 -5.244875 -5.081157 -31.996895 13.950628 5.890538 -14.851261 -0.722337 -9.644069 35.095764 5.009483 5.480849 -25.340916 -8.996116 -1.542268 
79.626389 54.699226 64.311050 3.071696 10.938621 -126.527779 32.257561 0.565598 -4.033634 -22.982040 5.769726 -1.088923 1.314634 -11.004013 -18.184389 13.247919 36.259964 -35.828999 2.971642 -4.490881 1.927035 -65.070564 -40.193432 21.611460 -41.994232 5.432595 5.098591 8.524705 12.647240 -53.411510 -4.704987 0.510038 2.448925 75.646530 33.303139 28.587839 57.711678 -9.053864 11.399582 -8.534408 -12.637552 59.603374 -15.641444 15.913326 11.443029 31.769026 -5.240703 -5.086078 -31.891167 14.601899 6.128932 -14.184945 -0.761072 -10.146177 35.403381 4.995370 5.504195 -25.390070 -9.309837 -1.675333 
79.704025 54.663715 64.316704 3.405339 10.862029 -127.131676 32.479015 1.052720 -3.838645 -23.119381 5.737236 -1.110485 1.008155 -11.212597 -17.972080 13.832724 35.993912 -35.311291 2.971642 -4.490881 1.927035 -64.991890 -40.243961 20.642443 -42.075756 5.458908 5.121418 8.524705 12.647240 -53.636116 -4.704987 0.510038 2.448925 75.435638 33.187214 27.933844 56.735146 -8.932475 10.979825 -8.534408 -12.637552 59.036964 -15.416774 16.342611 11.685579 31.940214 -5.220863 -5.095542 -32.213848 14.541172 6.246038 -13.248169 -0.653513 -10.941879 35.672878 4.960649 5.546239 -25.613688 -9.482081 -1.789884 
79.773155 54.640770 64.312309 3.530494 10.687288 -127.648384 32.594471 1.247226 -3.764913 -23.286261 5.772963 -1.129754 1.132544 -11.272082 -17.981064 13.827015 36.000874 -35.348392 2.971642 -4.490881 1.927035 -64.921478 -40.245461 19.657629 -42.095867 5.463957 5.130382 8.524705 12.647240 -53.987682 -4.704987 0.510038 2.448925 75.225250 32.944019 27.143545 55.792038 -8.800201 10.569170 -8.534408 -12.637552 58.665874 -15.172114 16.537016 12.044820 32.078907 -5.215650 -5.125726 -32.397293 14.601396 6.360443 -12.404593 -0.857329 -12.012202 35.861469 4.950572 5.560299 -25.745478 -9.517214 -1.839136 
79.838837 54.625999 64.307281 3.623472 10.482843 -128.146011 32.695442 1.380684 -3.613590 -23.403831 5.654435 -1.123528 1.350163 -10.853050 -17.994213 13.105289 35.613876 -35.518864 2.971642 -4.490881 1.927035 -64.660309 -40.260769 19.386736 -42.249004 5.517934 5.185781 8.524705 12.647240 -53.733776 -4.704987 0.510038 2.448925 75.246353 32.688484 25.904181 54.955841 -8.670007 10.207644 -8.534408 -12.637552 58.197117 -14.872807 16.610792 12.242309 32.188049 -5.211491 -5.144791 -32.416172 14.942714 6.506665 -11.570147 -1.142289 -13.046254 36.027321 4.966079 5.579637 -25.657072 -9.697771 -1.905069 
79.911438 54.623489 64.307907 3.534807 10.266916 -128.693619 32.615334 1.563632 -3.810126 -23.325043 5.514835 -1.174562 1.383553 -10.993117 -17.896786 13.063351 35.830318 -35.387409 2.971642 -4.490881 1.927035 -64.391167 -40.334820 18.747896 -42.442459 5.581420 5.259610 8.524705 12.647240 -53.538464 -4.704987 0.510038 2.448925 75.474434 32.500160 24.551800 54.111374 -8.531459 9.851017 -8.534408 -12.637552 57.093605 -14.619328 16.504017 12.374865 32.187733 -5.216057 -5.136280 -32.540829 15.371081 6.763661 -10.930340 -1.491170 -13.577285 36.158878 4.931324 5.599718 -25.935410 -10.042638 -2.119442 
79.997231 54.619717 64.297218 3.359931 10.129587 -129.322144 32.393379 1.567923 -3.837364 -23.334599 5.337921 -1.182786 1.502295 -11.009498 -17.806856 13.033368 36.146877 -35.265297 2.971642 -4.490881 1.927035 -64.060188 -40.371021 18.078062 -42.595089 5.627330 5.308226 8.524705 12.647240 -53.509171 -4.704987 0.510038 2.448925 75.560989 32.710804 23.364164 52.679283 -8.272842 9.256626 -8.534408 -12.637552 56.175640 -14.442954 16.395611 12.603905 32.068562 -5.221080 -5.116611 -32.565823 15.949473 7.009504 -10.476099 -1.796011 -13.772154 36.286388 4.931386 5.630311 -26.764648 -10.228369 -2.429306 
80.081459 54.614693 64.281189 3.239101 10.016292 -129.858749 32.171070 1.545915 -3.759145 -23.158054 5.274614 -1.142404 1.414134 -10.693498 -17.808355 12.839541 35.945232 -35.371269 2.971642 -4.490881 1.927035 -63.825981 -40.581020 17.817432 -42.778965 5.690914 5.381671 8.524705 12.647240 -53.157604 -4.704987 0.510038 2.448925 75.620125 32.825058 21.750500 51.514038 -8.040549 8.781776 -8.534408 -12.637552 55.267437 -14.282730 16.310678 12.737839 31.980249 -5.215599 -5.107320 -32.769833 16.272432 7.251154 -9.946436 -2.116852 -14.297152 36.348507 4.911291 5.610674 -27.561111 -10.351627 -2.721022 
80.146515 54.609344 64.267677 3.120889 9.838107 -130.190109 31.985401 1.729217 -3.825119 -23.295193 5.172433 -1.177486 1.292455 -10.449995 -17.708118 12.904376 35.355370 -35.170116 2.971642 -4.490881 1.927035 -63.671535 -40.486500 17.699478 -43.085194 5.787884 5.488101 8.524705 12.647240 -52.640026 -4.704987 0.510038 2.448925 75.593094 32.601440 20.069586 50.383980 -7.796980 8.317630 -8.534408 -12.637552 54.251812 -14.091864 16.181637 12.808169 31.909777 -5.228198 -5.085295 -33.179150 16.126505 7.351052 -9.330509 -2.603872 -15.288695 36.386089 4.921645 5.635962 -28.176590 -10.693636 -3.055793 
80.210930 54.586403 64.247253 3.118081 9.651676 -130.494171 31.918007 2.060042 -4.005305 -23.422771 5.368824 -1.281401 1.372063 -11.100727 -17.721037 13.213706 35.956905 -35.160744 2.971642 -4.490881 1.927035 -63.844025 -40.238720 17.724081 -43.524914 5.930009 5.654315 8.524705 12.647240 -52.249401 -4.704987 0.510038 2.448925 75.152756 32.517334 18.839415 49.110714 -7.497626 7.807777 -8.534408 -12.637552 53.118999 -13.775014 16.183514 13.118417 31.769119 -5.235597 -5.104130 -33.329193 15.843297 7.313845 -8.547975 -2.953808 -16.339849 36.356167 4.921790 5.643113 -28.747347 -11.177115 -3.432415 
80.292641 54.575722 64.230598 2.958050 9.421745 -130.954544 31.874296 2.101971 -4.001750 -24.051083 5.619706 -1.332158 1.711625 -11.771417 -17.751322 13.535376 36.476986 -35.137264 2.971642 -4.490881 1.927035 -63.966839 -39.435120 18.770529 -44.210899 6.139678 5.900126 8.524705 12.647240 -51.350964 -4.704987 0.510038 2.448925 74.626923 31.958130 17.381006 48.143604 -7.255211 7.416433 -8.534408 -12.637552 52.220566 -13.491673 16.036585 13.442040 31.640732 -5.235418 -5.083073 -33.416252 15.890662 7.368135 -7.926270 -3.385711 -17.148975 36.297359 4.921628 5.628207 -29.593765 -11.299394 -3.781348 
80.387558 54.599602 64.219276 2.638573 9.262241 -131.597961 31.580124 1.901642 -3.957323 -24.071337 5.808184 -1.300635 1.836600 -11.870309 -17.775587 13.326489 36.507401 -35.247417 2.971642 -4.490881 1.927035 -63.882706 -39.329395 19.240587 -44.693218 6.288365 6.089032 8.524705 12.647240 -50.638073 -4.704987 0.510038 2.448925 74.442535 31.781950 15.556579 47.448708 -7.074888 7.144910 -8.534408 -12.637552 51.566261 -13.384861 15.734914 13.288886 31.520712 -5.250123 -5.046477 -34.674885 15.413050 7.740161 -7.604391 -3.922552 -17.747532 36.208187 4.931221 5.603992 -30.494381 -11.246551 -4.071613 
